<?xml version="1.0" encoding="UTF-8"?>
<svg id="Layer_1" xmlns="http://www.w3.org/2000/svg" version="1.1" viewBox="0 0 1440 400.2">
  <!-- Generator: Adobe Illustrator 29.4.0, SVG Export Plug-In . SVG Version: 2.1.0 Build 152)  -->
  <defs>
    <style>
      .st0 {
        fill: #fe6d01;
      }

      .st1 {
        fill: #ffb9b9;
      }
    </style>
  </defs>
  <rect class="st0" width="1440" height="57"/>
  <ellipse class="st1" cx="28.8" cy="28.5" rx="28.8" ry="28.5"/>
  <ellipse class="st1" cx="720" cy="28.5" rx="28.8" ry="28.5"/>
  <ellipse class="st1" cx="201.6" cy="28.5" rx="28.8" ry="28.5"/>
  <ellipse class="st1" cx="892.8" cy="28.5" rx="28.8" ry="28.5"/>
  <ellipse class="st1" cx="86.4" cy="28.5" rx="28.8" ry="28.5"/>
  <ellipse class="st1" cx="777.6" cy="28.5" rx="28.8" ry="28.5"/>
  <ellipse class="st1" cx="259.2" cy="28.5" rx="28.8" ry="28.5"/>
  <ellipse class="st1" cx="950.4" cy="28.5" rx="28.8" ry="28.5"/>
  <ellipse class="st1" cx="144" cy="28.5" rx="28.8" ry="28.5"/>
  <ellipse class="st1" cx="835.2" cy="28.5" rx="28.8" ry="28.5"/>
  <ellipse class="st1" cx="316.8" cy="28.5" rx="28.8" ry="28.5"/>
  <ellipse class="st1" cx="1008" cy="28.5" rx="28.8" ry="28.5"/>
  <ellipse class="st1" cx="374.4" cy="28.5" rx="28.8" ry="28.5"/>
  <ellipse class="st1" cx="1065.6" cy="28.5" rx="28.8" ry="28.5"/>
  <ellipse class="st1" cx="547.2" cy="28.5" rx="28.8" ry="28.5"/>
  <ellipse class="st1" cx="1238.4" cy="28.5" rx="28.8" ry="28.5"/>
  <ellipse class="st1" cx="432" cy="28.5" rx="28.8" ry="28.5"/>
  <ellipse class="st1" cx="1123.2" cy="28.5" rx="28.8" ry="28.5"/>
  <ellipse class="st1" cx="604.8" cy="28.5" rx="28.8" ry="28.5"/>
  <ellipse class="st1" cx="1296" cy="28.5" rx="28.8" ry="28.5"/>
  <ellipse class="st1" cx="489.6" cy="28.5" rx="28.8" ry="28.5"/>
  <ellipse class="st1" cx="1180.8" cy="28.5" rx="28.8" ry="28.5"/>
  <ellipse class="st1" cx="662.4" cy="28.5" rx="28.8" ry="28.5"/>
  <ellipse class="st1" cx="1353.6" cy="28.5" rx="28.8" ry="28.5"/>
  <ellipse class="st1" cx="1411.2" cy="28.5" rx="28.8" ry="28.5"/>
  <rect class="st1" y="28.5" width="1440" height="371.7"/>
</svg>