<?xml version="1.0" encoding="UTF-8"?>
<svg id="Layer_1" xmlns="http://www.w3.org/2000/svg" version="1.1" viewBox="0 0 160 110">
  <!-- Generator: Adobe Illustrator 29.5.0, SVG Export Plug-In . SVG Version: 2.1.0 Build 137)  -->
  <defs>
    <style>
      .st0 {
        fill: #770002;
      }
    </style>
  </defs>
  <path class="st0" d="M127,8.9l1-6.4,4.8-1.7c.6,0,1.5-.7,1.3.4s-2.7,5.3-3.4,6-1.5.9-2.4,1.2-1.1.6-1.3.5Z"/>
  <path class="st0" d="M53.9,92.6c-5.8,9.7-15.9,22.3-28.1,14.1-.2-.1-.4-.3-.4-.6l8.7-27.8-14.8,10.8h-.3c-.3-1.2,0-2.5-.2-3.7,9.6-6.7,17.9-15.4,27.5-22,4.6-3.2,11.8-6.7,17.3-3.6,8.2,3.4-7.1,27.4-9.9,32.9ZM55.1,66.1c-2-2.3-12.5,4.4-13.2,6.4.8.4,1.8.3,2.6.7-2,8.1-6.8,15.2-6.3,23.9,6.6-4.7,10.9-13.9,14.4-21.1,1-2.8,3.8-7.1,2.5-9.9Z"/>
  <path class="st0" d="M84.3,82.6c.2.5,1.1-1.2,1.4-1.4,1.9-2.1,6.5-6.7,9-3.3.8,2.6-2.5,6-2.5,8.6.2.4.6.3.9.2,3.3-3,5.1-8.1,7-12.2.9,0,5.7-1,5.5.5,0,.9-1.2,2.8-1.6,3.8-.3.9-1.8,3.8-.2,3.9,3.2-2.6,5.8-8.1,7.9-11.7.9-.6,2.9-.2,4-.2.2,0,1,0,1.1.3-.5,2.8-2.5,5.5-3,8.4-.6,5.5,10.5-11.3,10.6-12.6.3-.6,2.1-4.4,1.9-4.7-.2,0-.4-.1-.6,0-5.7,1.7-11.4,4-17,6-1.3.2-5.9,3.1-6.3.9,8.1-3.1,16.7-6,24.7-9.1,1-.7,1.6-2.6,2.2-3.7s.9-2.1,1.8-2.4,3-.3,4.2-.5,1-.3,1.6-.2c-.3,1.7-2.2,4,1,2.7,6-2.6,12.4-5.4,18.7-7,0,.8,0,1.7-.4,2.4l-21.1,7.4c-.9.5-2.8,5.2-3.3,6.4-1.4,3.3-2.6,6.6-4,9.9-.5,1.6.5,1,1.3.4,4.6-4.1,8-11.1,12.1-15.8,1.5-1.5,1.4.2,1.6,1.2.4,1.4,2.8,3.5,3.8,4.9s.3.8.6.9c.8.2,4-1.2,5.1-1.5,2.1-.5,4.8-1.2,6.9-1.2,0,3.6-4.2,2.9-6.7,3.7-1,.3-4.1,1.2-4.8,1.8s-.7,1.6-1,2.2c-.8,1.8-2.1,3-3.7,4s-7.8,3.5-9.7.6c-.4-1.4-.9-.7-1.8,0-2.6,2.2-10.9,10.2-11.7,2.9,0,0-.2-.4-.3-.4-2.8,2.8-9.9,12.5-12.6,4.9-.9,0-1.4,1.6-2,2.2-.7.8-2,2.2-2.9,2.7s-3.3.5-4.3.3-1.2-1-1.9-1.5c-1.3,1.4-2.3,3-3.9,4.1s-3.6,2-5.4,1.4c-2.6-1-.4-4.8.2-6.4s.5-1.6.3-1.9c-.4-.4-.9.3-1.2.6-2.7,2.7-2.6,9.2-6.2,10.1-2,.5-4.4.6-5.3-.4.3-2.9,2-5.8,2.6-8.7-.2-.2-1.3.9-1.5,1-.8.6-1.9,1.3-2.4,2.2-1.3,4.5-5.9,10.7-10.8,11.7-9.4-.3-2.3-13.3,2.3-15.9,1.6-1.1,4.8-2.9,6.7-1.7s2.4,2.4,2.7,2.4c2.4-1.1,3.9-4,6-5.7h4.4l.2.2c.1.7-.2,1.9,0,2.6ZM139.4,67.2c-.5-.3-2.2,2.7-2,3.1.4.1,2.4-.6,2.5-.9s-.2-2-.5-2.1ZM139.7,72.1c-1.5.5-3.9.6-4.9,1.9.3,2.1,3,1.6,4.2.5s1.8-2.5.6-2.4ZM65.6,87.6c-.4.4,0,1.1.6,1.2,2.2.3,1-2.4-.6-1.2ZM63.4,95.7c1.5,1.2,3.1-1.8,3.3-3,0-.1.2-1.2.2-1.3,0-.1-.2-.3-.4-.4l-2.8-.4c-.5.1-.4,1.2-.7,1.5.1.5-.2,1.2-.2,1.6s.2,1.7.6,2Z"/>
  <path class="st0" d="M26.5,59.8c-2.3,2.4-4.4,6.5-8,7.1-3.1.3-10.8-2.2-11.3-5.7,1-8.2,3.7-16.9,5.6-24.9-4.1,2.2-7.7,5.4-11.6,8h-.3s0-4.1,0-4.1c9.8-8.9,20-18.2,31.4-24.9,9.7-5,13.9-.4,12.4,9.7s-11,24.4-18.2,34.8ZM23.1,48c7.8-10.9,23.5-43.9-2.5-19.6-.2.6,3.2.8,3.2,1.9,0,0-5.3,22.9-5.3,22.9v1.2c1.7-1.5,3.2-4.4,4.7-6.4Z"/>
  <path class="st0" d="M94.6,10v.2c.1,0-5.5,16.3-5.5,16.3.7.9,4.8-3.5,8-1.4,3.5,4.9-3.1,8.5-6.3,11,.2.2,4.6,2.8,4.4,3.2l-3.1,3.2c-.7-.3-6.1-3.2-6.3-3-.8,2.9.2,4.4-3.6,4.4-2.8.4-2.7,1.1-2.6-2-.8.3-1.1,1.5-1.7,2.2-1.3,1.7-3.7,4-6.1,3.4-3.3-1-.4-5.8-.3-8.1-1.5-1.7-6.7,11-8.7,11.2-.5,0-2.5-.2-3-.4-.8-.4-.4-1.5-1-2-.7,2-3.6,5.2-5.6,5.7-2.5.6-4.1-.6-4.5-3.1-2.1,2.3-3.9,6.3-6.8,7.6-4.6-2.1-2.6-10.1-1.5-14,.2-.4.2-2,.7-2.1,1.2,0,2.4,0,3.6-.1s2.4-.4,2.5,0c-.8,2-2.5,5.5-2.4,7.8.4,1.8,2.1-1.4,2.5-1.9,1.8-2.9,2.9-6.4,4.8-9.1,1.4,0,2.8,0,4.1.3,1.1,1.1-1.3,6.3-1.1,8,.8,2.7,7.3-11.2,8-12.3l5,.4c.3.9-.4,2-.6,2.9l.3.2c2.4-1.9,5.1-7.9,9.1-6.4,2.7,1.3,1.7,5,.9,7.2,0,0-.1.6.1.5,6.6-8.3,7.3-19.7,10.2-29.4h6.8ZM91.5,29.2c-.6-.4-2.9.9-3.3,1.5s-.7,2.4-.7,3.3.1.7.7.5c1.6-.5,4.5-3.7,3.4-5.3Z"/>
  <path class="st0" d="M128.8,25.9c1.1-.8,2-2.2,3-3,.6-.2,1.7.1,1.5.9-1.8,3.9-7.7,8-12.1,7.2-2.2-1,1.4-6.4,0-7.4-2.5,1.7-4.7,7.8-6.4,10.1-.5.3-1.4.1-2,.2s-3.4.5-3.6.2c.4-2.2,1.3-4.2,1.7-6.4-1.2.1-2.3,2.9-3.2,3.8-2,2.3-6.7,9.6-9.7,5.2-.4-4.1,1.6-9.7,2.9-13.5.4-.9.8-.7,1.7-.7s1.9.3,2.8.4,1.4-.3,1.3.6c-.3,2.3-2.4,4.9-2.4,7.4,2.1,1.3,8.6-12.4,10.7-12.3,5.6-.5,5.2-.7,3.5,4.4l.3.2c2.5-2.5,5.6-6.8,9-7.9,2.4-.4,2.4,3.7,2.1,5.2-.7,2.1-1.8,4-2.7,6,.3.7,1.2,0,1.6-.3Z"/>
  <path class="st0" d="M110.5,13c3.5,4.1-6,8.5-7.8,4.4-1.9-4.1,5.3-6.9,7.8-4.4Z"/>
</svg>