<?xml version="1.0" encoding="UTF-8"?>
<svg id="Layer_1" xmlns="http://www.w3.org/2000/svg" version="1.1" viewBox="0 0 160 110">
  <!-- Generator: Adobe Illustrator 29.5.0, SVG Export Plug-In . SVG Version: 2.1.0 Build 137)  -->
  <defs>
    <style>
      .st0 {
        fill: #fe0b88;
      }
    </style>
  </defs>
  <path class="st0" d="M60.6,39.8c1.8-.6,1.7,1.6.6,2.4-1.5,1.2-7,3.4-8.9,3.9-1.2.4-2.1.2-2.4-1.1-.2-.5-.9-3.3-.5-3.5,3.7-.6,7.6-1.2,11.3-1.6Z"/>
  <path class="st0" d="M63.3,54c-1,1.3-2.3,2.9-3.4,4.1s-.6.7-1.3.4c-.7-.4-3.1-2.1-2.7-3,3.1-2.6,6.2-6.4,9.8-8.3,4-.1-1.4,5.6-2.3,6.8Z"/>
  <path class="st0" d="M133.3,52.4c-2.3-8.2-9.1-15.1-17.5-16.9-22.2,0-44.8,0-67-.1-.8,0-5.6,0-5.8,0,0,0-.1,1-.1,1.2.3,23.8-.3,47.9.2,71.6.1-.2,67.8.4,67.8-.2v-23.4c0,0,.9-.3,1-.3,16.3.2,25.4-17.5,21.5-32ZM48.8,50.3c-.4-.3-.7-.9-.9-1.3,0,0,0,0,0,0,0,0,0,0,0,0-.4-.8-1-2.3-1.5-3.9-.7-2-1.3-4.2-1.3-5.7,0-.7,0-1.2.3-1.6,0,0,0,0,0,0,0,0,0,0,0,0,3.1-.5,6.2-.6,9.4-.7,2.5,0,5,0,7.5-.2.3,0,.6,0,.9.2.2,0,.3.2.5.4,0,0,0,.1.1.2,0,.2.2.4.3.7.6,1.5,1.3,4.1,1,5.1-4,2.3-10.5,6.3-14.9,7.3,0,0,0,0,0,0-.5.2-.9,0-1.2-.2ZM61.2,63c-.7.3-1.3-.2-2.5-1-2.5-1.8-5.6-4.4-7.2-6.9-.1-.5.2-1.2.9-2,1.5-1.8,4.6-4,7.5-5.9,2.3-1.5,4.5-2.7,5.5-3.2,0,0,0,0,.1,0,1.4.4,3.6,2.3,4.4,3.5,0,0,0,0,0,0,0,.9-.3,2.1-.8,3.3-.8,1.9-2.1,4.1-3.3,6.1-1.2,1.9-2.4,3.7-3.2,4.8-.6.7-1,1.1-1.4,1.3ZM77.7,67.6c-.3.3-.8.5-1.4.5,0,0,0,0,0,0-.2,0-.3,0-.5,0-.3,0-.7-.1-.9-.3-.2,0-.4-.2-.5-.3-.7-.6-.6-1.7-.8-2.5-.1-.6-.3-1.2-.4-1.8-.2-.8-.4-1.7-.6-2.5-.2-1-.4-2-.6-3-.1-.4-.4-.3-.6.2-.4.7-.8,1.9-1.3,3.3-.6,1.7-1.3,3.6-1.8,4.5,0,0,0,0,0,0,0,0,0,.1-.1.2-.1.2-.2.3-.3.3,0,0,0,0,0,0-.7.4-2.6-.5-2.8-1.2.2-3,2.1-6,3.3-8.9.2-.4.3-.7.4-1.1.7-2.1,1.3-3.7,1.9-4.7,0,0,0,0,0,0,0,0,0-.1.1-.2,0,0,0,0,0-.1,0,0,0,0,0-.1,0,0,0,0,0-.1,0,0,0,0,0,0,.9-1.2,1.5-1.2,2.1-.3,0,0,0,0,0,0,0,0,0,0,0,.1,0,0,0,0,0,0,0,0,0,0,0,.1,0,0,0,0,0,0,0,0,0,0,0,.1,0,0,0,0,0,0,0,0,0,0,0,0,0,0,0,0,0,0,0,0,0,0,0,0,0,0,0,0,0,.1,0,0,0,0,0,0,0,0,0,0,0,.1,0,0,0,0,0,0,.6,1.6,1,4.3,1.3,7.1.3-.3.4-.9.5-1.7.2-1.5.1-3.6.5-4.9.3-1.1.8-1.7,1.9-1.1.1,0,.3.2.5.3-.3,5.8.6,12-.4,17.6ZM93.4,63.8h0s0,0,0,0c-.3.3-.8.7-1.3,1.1-1.7,1.1-4.2,2.2-6.5,2.6-1.9.3-3.5.2-4.4-.8-.4-2.6-.7-5.1-1-7.7-.2-1.7-.3-3.3-.5-5,0-.6-.2-1.3-.3-2,0-.9,0-1.8.8-2.3.2-.1.4-.2.7-.3,0,0,0,0,0,0,.5,0,1,.6,1.3,1.4.7,1.6,1.1,4.4,1.4,6.9.3,2.4.5,4.5.8,5.4,0,.2.1.6.2.9,0,.1.2.2.3.2,1.2-.2,3.4,0,4-1.4-.7-2-1.5-3.9-2.5-5.8-.9-1.9-1.8-3.8-2.6-5.7-.2-.3-.3-.8-.4-1.2,0-.6.2-1.2.6-1.5.4-.4.9-.4,1.6,0,.1,0,.2.2.4.4.1.2.3.4.4.6,0,.1.1.2.2.4.8,1.4,1.8,3.3,2.3,4.1.2.6.9,1.6,1.6,2.7.9,1.4,2,3.1,2.6,4.5.5,1.1.7,2.1.3,2.5,0,0,0,0,0,0ZM101.9,58.4s0,0,0,0c0,0-.1,0-.2,0,0,0,0,0,0,0-.2,0-.4.1-.6.1h0s0,0,0,0c-3-1.8-5.7-4.8-8.4-7.2-.4-.3-.8-.7-1.1-1-.3-.2-.9-.8-1.4-1.2-.1,0-.2-.2-.3-.2,0,0-.2-.1-.3-.2,0,0-.1,0-.2-.1-.4-.2-.6.4-.9.5-.4.2-.8.2-1.2,0-.1,0-.2,0-.3-.1,0,0-.1,0-.2-.1,0,0-.1,0-.2-.1,0,0,0,0,0,0,0,0,0,0,0,0,0,0,0,0,0-.1-.2-.3-.3-.6-.2-.9,1.1-.9,3.9-6.4,5.5-4,.3.2.3.4.3.7,0,.1,0,.3-.1.4-.1.3-.4.7-.4.9,0,0,0,.1,0,.2.4.3.8.7,1.2,1,.8.6,1.6,1.3,2.4,1.9.4.3.8.6,1.2.9,1.7,1.2,3.3,2.4,4.9,3.6.1.1.4.3.8.6,0,0,.1,0,.2.1.1,0,.2.2.3.3.4.3.7.6.8.7.9,1.2-.1,2.7-1.3,3.4ZM108.7,47.2s0,0,0,0c-1.5,1.8-5.5.6-7.3-.1-.5-.3-.6-.9-.6-1.6,0,0,0,0,0,0,0-.1,0-.2,0-.4,0,0,0,0,0-.1,0,0,0-.2.1-.3,0,0,0-.2.1-.3.1-.2.3-.3.4-.4.2-.1.6-.2,1-.2.1,0,.2,0,.3,0,1.1,0,2.5.2,3,0,0,0,0,0,0,0,0,0,0,0,.1,0,0,0,0,0,0,0,.3-.7.3-1.1.1-1.5-.2-.5-.7-.7-1.3-.8-.5,0-1.1,0-1.6,0-.4,0-.8.1-1.2.3,0,0,0,0-.1,0-.2.1-.5.2-.7.4-.5.3-.9.7-1.3,1.1-.6.5-1.1,1-1.9,1.3-.5.2-1.2.2-2,.1-1.7-.2-3.6-.8-4.3-1.8,0,0,0,0,0,0-.9-1.6.2-4.1.9-5.5.3-.4.8-.6,1.4-.7.7-.1,1.5,0,1.9.2,0,0,.2.1.2.2.5.5.4,1.3,0,2-.4.7-1.1,1.2-1.9,1,0,0,0,0,0,0-.5.2-.6.5-.6.8,0,0,0,0,0,0,0,0,0,0,0,0,0,0,0,0,0,0,0,0,0,0,0,0,0,0,0,0,0,0s0,0,0,0c0,0,0,0,0,0,0,0,0,0,0,0,0,0,0,0,0,0,0,0,0,0,0,0,0,0,0,0,0,0,0,0,0,0,0,0,0,0,0,0,0,0,.5.2,1.2.2,2.1-.1,0,0,.2,0,.3,0,0,0,0,0,0,0,.6-.3,1.3-.7,2-1.4.4-.3.7-.6,1-.9.8-.6,1.6-1.2,2.6-1.3,2.2-.1,6.8-.2,8.2,1.7,0,0,0,0,0,0h0s0,0,0,0c0,.2,0,.4,0,.7.2,2.4-.4,5.4-1.7,7.4,0,0,0,0,0,.1ZM113.6,69.9c-.5,0-2.9,1.1-2.9.2-.1-7.1.3-14.6.2-21.7.5,0,1.1,0,1.6,0,9.7,2.6,10.3,17.8,1.1,21.6Z"/>
  <path class="st0" d="M104.1,19.5c-.4.9-6.7,6.6-5.5,6.7,1-.3,2.3-.7,3.4-.9,1.6-.4,5.3-1.8,6.7-1.2,2,.9,1.3,3.6-.7,4.1-5.2,1.3-10.6,1.8-15.8,2.9-.7,0-1-1.5-.9-2.1-.3-.6,5.4-5.5,3.6-4.8-1.3.7-2.9,2.2-4.3,2.6s-2-1.1-1.6-2c2.2-2.5,5.5-4.2,8.1-6.2,1.5-1.1,4.8-3.9,6.6-3.8,2.8.4,2.2,3.5.5,4.9Z"/>
  <path class="st0" d="M78,20.9c-2.6,2-5.6-7.6-5.9-5.7-.1,1.9,3.5,6.5,0,6.9-1.7,1-3.8-7.7-4.7-9.2-.7-2.6-4.1-6.5-1.6-8.7,2.6-2.3,4.4,2.3,5.7,4,1.1,1.5,2.1,3.6,3.3,4.9.4-3.1-2-8,0-10.7,1.3-1.2,3.1-.6,3.5,1.2.4,3,.2,6.2.1,9.3-.2,2.6.4,5.6-.5,8Z"/>
  <path class="st0" d="M49.3,19.5c1.2-.2,3.2,1.1,4.3,1.6,3.6,1.7,7.3,3.6,10.8,5.6,1.5,1.1.3,3.2,0,4.6-.4,2.9-2.6,2.1-4.8,2.1-4.3,0-8.6-.2-12.9-.5-.2,0-1.5-.2-1.6-.3-.2-3.2,1.3-11.3,4.2-13.1ZM48.7,28.7c3.5.9,7.7,1.6,11.3,1.9,1.2,0,2.2,0,1.9-1.5-2.3-2.2-6.6-3.2-9.7-4.1-1.6-.3-2.3-.5-3,1.2s-.7,2.1-.5,2.4Z"/>
  <path class="st0" d="M62.1,7.6c1.6,1.8,3.8,5.7,5.1,7.9.8,2,4.3,5.8,2.8,7.7-1,1.1-3.3,3.9-5,2.9-3.3-2.2-6.5-4.4-9.6-6.8-1-.8-3.7-2.4-3.9-3.7,0-1.9,2.7-3.1,4-1.6,2.4,1,9.8,10.3,11.6,8.3.1-.2-.8-1.5-.9-1.8-2.3-3.7-5.7-7.3-7.7-11.2-.4-1.7,2.7-3.5,3.6-1.7Z"/>
  <path class="st0" d="M86.3,8.9c1.8-.7,6.2-4.6,7.7-2.5.4.9.3,1.9-.5,2.5-1.5,1.1-4.5,1.9-6.2,2.5,0,.3,1.9,2.4,1.7,3.5-.9,2.1-2.8,4.7-4.2,6.5-1,.9-2.4.2-1.9-1.2,1-2.1,4-5.4,1.2-7.3-1.5,1.8-1.4,5.8-2.7,7.7-5.1,4-.9-10.5-.8-12.4.4-2.2.1-6.5,3.5-5.9,1,.2,1.2.8,1.8,1.6-.6,1.8-.9,3.7-1.3,5.5.2.5,1.2-.3,1.6-.5Z"/>
  <path class="st0" d="M99.3,12.3c-1.1,1.6-3.4,3.7-4.9,5.2-1.8,1.4-5.7,7.1-7.9,6.3-2.8-1.6,4.2-7.9,5.3-9.6,1.7-1.6,4.5-7.3,7.1-4.8.8.8,1.1,1.8.4,2.8Z"/>
  <path class="st0" d="M100.8,33.7c-1.3-.9-.9-2.9.8-2.8,2.4-.4,5.3-1.3,7.7-1.1,1.6,1,2,4.1-.5,4.2-1.4.2-2.8,0-4.1,0-1.2,0-2.8.4-3.9-.3Z"/>
</svg>