<?xml version="1.0" encoding="UTF-8"?>
<svg id="Layer_1" xmlns="http://www.w3.org/2000/svg" version="1.1" viewBox="0 0 160 110">
  <!-- Generator: Adobe Illustrator 29.5.0, SVG Export Plug-In . SVG Version: 2.1.0 Build 137)  -->
  <defs>
    <style>
      .st0 {
        fill: #ee4799;
      }

      .st0, .st1, .st2, .st3 {
        fill-rule: evenodd;
      }

      .st1 {
        fill: #ff8302;
      }

      .st2 {
        fill: #ff8302;
      }

      .st3 {
        fill: #fe0b88;
      }
    </style>
  </defs>
  <path class="st3" d="M73.6,82.4l-7.5-9.5v6.5h0c0,2.5-2,4.5-4.5,4.5s-4.2-1.7-4.5-4h0v-18.9h0c0-2.5,2-4.5,4.5-4.5h.5c1.2,0,2.2.6,3,1.5h0l7.5,9.4v-6.4h0c0-2.5,2-4.5,4.5-4.5s4.2,1.7,4.5,4h0v18.9h0c0,2.5-2,4.5-4.5,4.5s-.3,0-.5,0h0c-1.2,0-2.2-.6-3-1.5h0Z"/>
  <path class="st3" d="M109,60.5v12.9h0c-.6,6.3-5.9,11-12.2,11s-11.5-4.7-12.2-11h0v-12.9h0c.3-2.3,2.2-4,4.5-4s4.2,1.7,4.5,4h0v12h0c0,1.7,1.5,3,3.2,3s3.1-1.3,3.2-3h0v-12h0c.3-2.3,2.2-4,4.5-4s4.2,1.7,4.5,4h0Z"/>
  <path class="st3" d="M132.4,69.9c1.4,1.5,3,2.4,5,2.9h0c.6.1,1,.2,1.5.3h0c.4,0,.7.2,1.1.3h0c.2.1.4.2.5.4h0c.2.2.3.5.3.7h0c0,.5-.1.8-.4,1.1h0c-.2.2-.5.3-.8.3s-.1,0-.2,0h0c-.5,0-.8-.2-1.3-.4h0c-.5-.2-.9-.4-1.4-.6h0c-.5-.2-.8-.4-1.2-.7h0c-.6-.4-1.2-.6-1.8-.6s-1.1.1-1.6.4h0c-1,.6-1.6,1.3-1.9,2.3h0c-.1.5-.2.8-.2,1.3,0,1.3.5,2.5,1.5,3.4h0c2.4,2.1,5.2,3.2,8.4,3.2s.3,0,.4,0h0c3.8,0,7.1-2.2,8.5-5.8h0c.5-1.2.7-2.2.7-3.5s-.4-3.3-1.3-4.8h0c-.8-1.3-1.7-2.2-3-2.9h0c-.7-.4-1.3-.7-2-1h0c-.8-.3-1.5-.6-2.3-.8h0c-.5-.1-.9-.2-1.3-.4h0c-.3,0-.6-.2-.8-.4h0c-.3-.2-.5-.6-.5-.9h0c0-.5.2-.8.6-1h0c.2-.1.4-.2.6-.2h0c.6,0,1,.1,1.5.4h0c.8.5,1.5.8,2.3,1.2h0c.6.2,1,.3,1.6.3s.7,0,1.1-.1h0c1.1-.5,1.8-1.2,2.2-2.4h0c0-.3,0-.6,0-.8,0-1.2-.6-2.3-1.5-3h0c-1.2-.9-2.3-1.4-3.7-1.8h0c-1.2-.4-2.3-.6-3.5-.6s-2.1.1-3.2.5h0c-1.5.4-2.7,1.2-3.8,2.3h0c-1.5,1.6-2.3,3.5-2.3,5.7s.7,4.1,2.3,5.7h0Z"/>
  <polygon class="st0" points="114.4 65.5 115.5 65.5 114.4 65.5 114.4 65.5"/>
  <path class="st3" d="M115.5,65.5v14.5h0c.3,2.3,2.2,4,4.5,4s4.5-2,4.5-4.5h0v-14h1c2.5,0,4.5-2,4.5-4.5s-2-4.5-4.5-4.5h-11c-2.5,0-4.5,2-4.5,4.5s2,4.5,4.5,4.5h1Z"/>
  <polygon class="st1" points="11.3 44.6 11.3 35 11.3 44.6 11.3 44.6"/>
  <path class="st1" d="M24.8,32.1c-2.4-3.5-5.8-5.5-10-6h-6.9c-3.1,0-5.6,2.5-5.6,5.6v16.3c0,3.1,2.5,5.6,5.6,5.6h6.9c4.2-.5,7.6-2.5,10-6,1.5-2.4,2.3-4.8,2.3-7.7s-.7-5.3-2.3-7.7ZM17.3,42.6c-.8,1.1-1.8,1.8-3.1,2h-2.9v-9.5h2.8c1.4.3,2.4,1,3.2,2,.6.9.8,1.8.8,2.8s-.3,1.9-.8,2.8Z"/>
  <polygon class="st1" points="29.2 43 29.2 30.1 29.2 43 29.2 43"/>
  <path class="st1" d="M29.2,30.1c.2-2.3,2.2-4,4.5-4s4.2,1.7,4.5,4h0v11.9h0c0,1.8,1.5,3.1,3.2,3.1s3.1-1.3,3.2-3.1h0v-11.9h0c.3-2.3,2.2-4,4.5-4s4.2,1.7,4.5,4h0v12.9h0c-.7,6.3-5.9,11-12.2,11s-11.5-4.7-12.2-11v-12.9h0Z"/>
  <path class="st1" d="M76.1,26.1c-2.4,0-4.5,2-4.5,4.5v6.4l-7.5-9.4c-.8-.9-1.7-1.4-3-1.5h-.5c-2.5,0-4.5,2-4.5,4.5h0v19c.3,2.3,2.2,4,4.5,4s4.5-2,4.5-4.5v-6.5l7.5,9.5c.8.9,1.8,1.4,3,1.5.2,0,.3,0,.5,0,2.5,0,4.5-2,4.5-4.5v-18.9c-.2-2.3-2.2-4-4.5-4Z"/>
  <polygon class="st2" points="138.9 52 131.4 42.5 138.9 52 138.9 52"/>
  <path class="st1" d="M138.9,52c.8.9,1.8,1.4,3,1.5h0c.2,0,.3,0,.5,0,2.5,0,4.5-2,4.5-4.5h0v-18.9h0c-.3-2.3-2.2-4-4.5-4s-4.5,2-4.5,4.5h0v6.4l-7.5-9.4h0c-.8-.9-1.8-1.4-3-1.5h-.5c-2.5,0-4.5,2-4.5,4.5h0v19h0c.3,2.3,2.2,4,4.5,4s4.5-2,4.5-4.5h0v-6.5l7.5,9.5h0Z"/>
  <path class="st1" d="M93,49c0,2.5-2,4.5-4.5,4.5s-4.2-1.7-4.5-4h0v-18.9c0-2.5,2-4.5,4.5-4.5s4.5,2,4.5,4.5v6.4l7.5-9.6h0c.9-.9,1.9-1.4,3.2-1.4,2.5,0,4.5,2,4.5,4.5s-.3,1.9-.9,2.8h0l-5.3,6.2,5.3,6.7h0c.6.8.9,1.7.9,2.8,0,2.5-2,4.5-4.5,4.5s-2.3-.5-3.2-1.4h0l-7.5-9.6v6.4h0Z"/>
  <path class="st1" d="M110.5,49.5v-18.9c0-2.5,2-4.5,4.5-4.5s4.5,2,4.5,4.5v18.4h0c0,2.5-2,4.5-4.5,4.5s-4.2-1.7-4.5-4h0Z"/>
  <path class="st1" d="M157.6,30.1v-.3c0-2.3-1.8-4.2-4.2-4.2s-4.2,1.9-4.2,4.2v.2h0v4.6h0c.4,1.8,1.9,3,3.7,3s3.3-1.2,3.7-3h0l.8-4.5h0Z"/>
  <path class="st3" d="M24.8,62.5c-2.4-3.5-5.8-5.5-10-6h-6.9c-3.1,0-5.6,2.5-5.6,5.6v16.3c0,3.1,2.5,5.6,5.6,5.6h6.9c4.2-.5,7.6-2.5,10-5.9,1.5-2.4,2.3-4.9,2.3-7.7s-.7-5.3-2.3-7.7ZM17.3,73c-.8,1.1-1.8,1.8-3.1,2h-2.9v-9.5h2.8c1.4.3,2.4,1,3.2,2.1.6.8.8,1.7.8,2.7s-.3,1.9-.8,2.8Z"/>
  <path class="st3" d="M42.2,56c-7.8,0-14.2,6.4-14.2,14.2s6.4,14.2,14.2,14.2,14.2-6.4,14.2-14.2-6.4-14.2-14.2-14.2ZM42.2,75.4c-2.9,0-5.2-2.3-5.2-5.2s2.3-5.3,5.2-5.3,5.3,2.3,5.3,5.3-2.3,5.2-5.3,5.2Z"/>
  <path class="st3" d="M154.2,84.4c1.6,0,2.9-1.2,2.9-2.9s-1.4-2.9-2.9-2.9-2.9,1.2-2.9,2.9,1.4,2.9,2.9,2.9h0ZM151.8,81.5c0-1.4,1-2.4,2.4-2.4s2.3,1,2.3,2.4-1,2.4-2.3,2.4-2.4-1-2.4-2.4h0ZM153.6,81.7h.6l.9,1.5h.6l-1-1.5c.5,0,.9-.3.9-.9s-.4-1-1.2-1h-1.3v3.3h.5v-1.5h0ZM153.6,81.3v-1h.7c.4,0,.7,0,.7.5s-.4.5-.8.5h-.6Z"/>
</svg>