<?xml version="1.0" encoding="UTF-8"?>
<svg id="Layer_1" xmlns="http://www.w3.org/2000/svg" version="1.1" viewBox="0 0 200 200">
  <!-- Generator: Adobe Illustrator 29.5.0, SVG Export Plug-In . SVG Version: 2.1.0 Build 137)  -->
  <defs>
    <style>
      .st0 {
        fill: #f40290;
      }

      .st1 {
        fill: #fe6d01;
      }
    </style>
  </defs>
  <g>
    <path id="path5" class="st1" d="M80.8,19.9c-.1.2,0,.4,0,.6v9c0,.8,0,1.7-.3,2.5-.7,2.6-2.9,4.1-5.6,4-3.3-.2-5.2-2.2-5.5-5.8,0-.3,0-.7,0-1.1V5.9c0-2.4.9-4.3,3.2-5.3,2.4-1,4.6-.6,6.6,1.1,1.1.9,1.8,2.2,2.7,3.3,2.6,3.5,5.3,7,7.8,10.6.2.4.5.7.8,1.1V6.5c0-1.3.2-2.6.9-3.8,1.2-2.1,3.2-2.8,5.5-2.6,2.7.2,4.5,2.1,4.9,4.8,0,.6.1,1.2.1,1.9v23.3c0,2.4-.8,4.3-3.1,5.3-2.4,1-4.7.7-6.7-1.1-1.2-1.1-2.1-2.5-3.2-3.8-2.7-3.5-5.6-6.8-7.9-10.6,0,0,0,0,0,0Z"/>
    <path id="path7" class="st1" d="M164.9,20v.7c0,3.3,0,6.5,0,9.8,0,.9-.3,1.8-.7,2.6-1,2-3,3.1-5.3,2.9-3.2-.2-5.2-2.3-5.4-5.6,0-.2,0-.4,0-.6,0-8.2,0-16.3,0-24.5,0-2.1,1-3.7,2.9-4.6,2.1-1,4.2-.8,6.2.4.6.4,1.1.9,1.5,1.4,3.2,4.2,6.4,8.4,9.4,12.8.3.5.7,1,1.1,1.7V6.3c0-1.6.3-3.1,1.4-4.3,1.5-1.8,3.6-2.2,5.8-1.7,2.1.4,3.3,1.8,3.9,3.7.3.9.3,1.9.3,2.8v23.4c0,2.4-.9,4.3-3.1,5.2-2.3,1-4.5.7-6.5-.9-.3-.2-.6-.6-.9-.9-3.1-4-6.5-7.9-9.4-12.1-.4-.5-.7-1.1-1.1-1.6,0,0,0,0,0,0h0Z"/>
    <path id="path9" class="st1" d="M11,.8c2,0,4.3-.2,6.6.3,6.3,1.2,11.2,4.4,13.4,10.6,2.3,6.4,1.5,12.5-3,17.8-2.8,3.3-6.5,5-10.7,5.6-3.9.6-7.8.2-11.6.2-.2,0-.4,0-.6,0C1.9,34.6-.3,31.9,0,28.5,0,21.4,0,14.3,0,7.2,0,3.7,2.6.9,6.1.8c1.5,0,3.1,0,4.9,0ZM11.4,18.1v5.7c0,.3,0,.5.4.5,1.2,0,2.4,0,3.6,0,3.2-.4,5.3-2.8,5.3-6.1,0-3.2-2.1-5.7-5.3-6.1-1.2-.2-2.4,0-3.6,0-.4,0-.6.1-.6.6,0,1.9,0,3.8,0,5.6Z"/>
    <path id="path11" class="st1" d="M117.1,10.9c2.1-2.7,4.2-5.2,6.2-7.8,1.2-1.5,2.5-2.6,4.5-2.8,3.4-.3,6.6,2.8,6.4,6.1-.1,1.6-.7,2.9-1.7,4.1-2,2.3-4,4.6-6,7-.3.3-.3.5,0,.8,2.2,2.4,4.2,4.8,6.4,7.2,1.2,1.3,1.8,2.8,1.7,4.5-.1,3.7-3.9,6.6-7.4,5.6-1.2-.3-2.2-1.1-2.9-2-2.2-2.7-4.6-5.5-6.7-8.3,0-.1-.2-.2-.3-.4-.2.1-.1.3-.1.4,0,1.7,0,3.3,0,4.9,0,3.3-2.5,5.7-5.7,5.6-3.3,0-5.7-2.3-5.7-5.6,0-8.2,0-16.4,0-24.6C105.6,2.3,108.1,0,111.3,0c3.2,0,5.6,2.3,5.7,5.6,0,1.8,0,3.5,0,5.2h0Z"/>
    <path id="path13" class="st1" d="M65.3,14.8c0,2.2,0,5.1,0,7.8-.4,6.9-5.5,12.4-12.4,13.2-3.1.4-6,.2-8.9-1-5.1-2.1-7.9-6-8.7-11.4,0-.7-.1-1.4-.2-2.1,0-5.1,0-10.3,0-15.4,0-3.4,2.4-5.9,5.7-5.8,3.3,0,5.7,2.5,5.7,6v14.5c0,1.6.6,2.9,2.1,3.7,2.3,1.2,5-.5,5.2-3.2,0-.3,0-.7,0-1.1V5.9c0-3.1,2.1-5.4,5.1-5.7,3-.3,5.6,1.5,6.2,4.5,0,.5.1.9.1,1.4,0,2.7,0,5.4,0,8.7h0Z"/>
    <path id="path15" class="st1" d="M138.1,18c0-4.1,0-8.1,0-12.2,0-2.4,1-4.2,3.2-5.1,2.3-1,4.5-.7,6.4,1,1.2,1,1.7,2.4,1.7,3.9,0,8.4,0,16.8,0,25.1,0,3.2-2.6,5.5-5.7,5.4-3.3,0-5.6-2.4-5.6-5.6,0-4.1,0-8.3,0-12.4h0Z"/>
    <path id="path17" class="st0" d="M189.3,8.4c0-1.4,0-2.8.3-4.1.6-2.9,3-4.5,6-4,2.8.4,4.6,2.8,4.4,5.6-.2,2.4-.9,4.6-1.8,6.8-.6,1.3-1.4,2.3-2.8,2.8-2.2.7-4.6-.3-5.4-2.6-.6-1.4-.6-3-.6-4.5h0Z"/>
  </g>
  <g id="g6">
    <path id="path91" data-name="path9" class="st1" d="M129,53.4c2.1,0,4.4-.2,6.7.3,6.4,1.2,11.3,4.4,13.5,10.7,2.3,6.5,1.5,12.5-3,17.9-2.8,3.3-6.6,5-10.8,5.6-3.9.6-7.8.2-11.7.2h-.6c-3.1-.5-5.2-3.1-5.2-6.2v-22.3c0-3.5,2.7-6.3,6.2-6.3h4.9ZM129.4,70.7v5.7c0,.3,0,.5.4.5h3.6c3.2-.4,5.3-2.8,5.3-6.2s-2.2-5.7-5.3-6.2c-1.2-.2-2.4,0-3.6,0s-.6.1-.6.6v5.6h0l.2-.2Z"/>
    <path id="path51" data-name="path5" class="st1" d="M164.7,72.5c-.1.2,0,.4,0,.6v9.1c0,.8,0,1.6-.3,2.5-.7,2.6-3,4.2-5.6,4-3.4-.2-5.2-2.3-5.5-5.8v-24.5c0-2.5.9-4.4,3.3-5.3,2.4-.9,4.6-.6,6.6,1.1,1,.9,1.8,2.2,2.7,3.3,2.6,3.6,5.3,7,7.8,10.7.2.4.5.7.8,1.1v-10.4c0-1.3.2-2.7.9-3.8,1.2-2.2,3.3-2.9,5.5-2.6,2.8.2,4.5,2.2,4.9,4.8,0,.6.1,1.2.1,1.8v23.5c0,2.5-.8,4.3-3.1,5.3-2.5,1-4.7.6-6.7-1.1-1.2-1.1-2.2-2.5-3.2-3.8-2.8-3.5-5.6-6.9-8-10.7h-.2Z"/>
    <path id="path111" data-name="path11" class="st1" d="M129.5,102.6c2.1-2.7,4.2-5.2,6.3-7.8,1.1-1.5,2.6-2.6,4.5-2.8,3.4-.3,6.7,2.8,6.4,6.2-.1,1.5-.7,2.9-1.7,4.1-1.9,2.4-4,4.7-6,7-.3.3-.3.5,0,.8,2.2,2.4,4.3,4.8,6.4,7.2,1.1,1.3,1.8,2.8,1.7,4.5-.1,3.8-3.9,6.7-7.4,5.6-1.2-.3-2.2-1-3-2.1-2.3-2.8-4.6-5.5-6.8-8.3,0-.1-.2-.2-.3-.4-.2.1-.1.3-.1.4v4.9c0,3.4-2.5,5.7-5.7,5.6-3.3,0-5.7-2.4-5.7-5.6v-24.8c0-3.3,2.5-5.6,5.7-5.6s5.6,2.4,5.7,5.6v5.2h0v.2Z"/>
    <path id="path71" data-name="path7" class="st1" d="M164.6,111.8v10.5c0,.9-.3,1.8-.7,2.7-.9,1.9-3.1,3.1-5.3,2.9-3.3-.2-5.2-2.3-5.4-5.6v-25.2c0-2.2,1-3.7,2.9-4.6,2.2-1,4.2-.8,6.3.4.6.4,1.1.9,1.5,1.4,3.2,4.3,6.5,8.4,9.4,12.8.3.5.6,1,1,1.6v-10.8c0-1.5.3-3.1,1.3-4.3,1.5-1.8,3.6-2.2,5.8-1.7,2.1.4,3.4,1.7,4,3.8.3.9.3,1.8.3,2.9v23.5c0,2.4-.9,4.3-3.1,5.2-2.4,1-4.5.7-6.6-.9-.3-.2-.6-.6-.9-.9-3.2-4-6.5-7.9-9.4-12.1-.4-.5-.7-1-1-1.6h0v.2Z"/>
    <path id="path171" data-name="path17" class="st0" d="M189.3,100.1c0-1.4,0-2.8.3-4.2.6-2.9,3.1-4.5,6.1-4,2.9.4,4.7,2.8,4.4,5.6-.2,2.4-.9,4.7-1.8,6.9-.6,1.3-1.4,2.4-2.8,2.8-2.3.7-4.6-.3-5.4-2.6-.6-1.4-.6-3-.6-4.5h-.1Z"/>
  </g>
</svg>