<?xml version="1.0" encoding="UTF-8"?>
<svg id="Layer_1" xmlns="http://www.w3.org/2000/svg" version="1.1" viewBox="0 0 160 110">
  <!-- Generator: Adobe Illustrator 29.5.0, SVG Export Plug-In . SVG Version: 2.1.0 Build 137)  -->
  <defs>
    <style>
      .st0 {
        fill: #e8332a;
      }

      .st1, .st2, .st3 {
        fill-rule: evenodd;
      }

      .st1, .st4 {
        fill: #fff;
      }

      .st2, .st5 {
        fill: #ff8302;
      }

      .st6 {
        fill: #663700;
      }

      .st3, .st7 {
        fill: #fe0b88;
      }
    </style>
  </defs>
  <path class="st1" d="M122.2,39.9s0,0,0,0c0,0,0,0,0,0,0,0,0,0,0,0ZM142.2,40.5s0,0,0,0c0,0,0,0,0,0,0,0,0,0,0,0M155.3,66.4s0,0,0,0c0,0,0,0,0,0,0,0,0,0,0,0M111.4,39.8s0,0,0,0c0,0,0,0,0,0,0,0,0,0,0,0M44.7,83.3s0,0,0,0c0,0,0,0,0,0,0,0,0,0,0,0M93.5,40.5s0,0,0,0c0,0,0,0,0,0,0,0,0,0,0,0"/>
  <path class="st2" d="M126.2,40.2c-.9,0-1.8.4-2.4,1.1-.7.7-.8,1.3-.8,3v12.1c0,1.3.2,2,.8,2.7.6.6,1.5,1,2.4,1s1.8-.4,2.4-1.1c.6-.6.8-1.4.8-2.6v-12.1c0-1.6-.2-2.3-.8-3-.6-.6-1.5-1-2.4-1ZM154.8,40.2c-1.7,0-2.9,2.1-2.9,3.8s0,1.8.2,2.7c.2,1.2.8,2.2,2.1,2.4,1.4.3,2.3-1,2.9-2.4.4-1.1.6-2.3.6-3,0-1.7-1.2-3.5-2.9-3.5M146.6,40.2c-1.1,0-2.1.6-2.6,1.4-.5.7-.6,1.3-.6,2.5v3.6l-.9-1.2-4.2-5.1c-.7-.9-1.5-1.3-2.4-1.3-2,0-3.4,1.4-3.4,3.5v12.4c0,1.4.1,2,.7,2.8.6.8,1.6,1.3,2.6,1.3s1.9-.4,2.5-1.2c.6-.7.7-1.3.7-2.6v-4.1l5.1,6.5c.7.9,1.5,1.3,2.5,1.3s1.9-.4,2.5-1.2c.6-.7.7-1.4.7-2.9v-12c0-1.2-.2-1.9-.8-2.6-.6-.7-1.5-1.2-2.5-1.2M116.4,49.9l2.2-3.3,1-1.5c.3-.5.5-1.1.5-1.7,0-1.7-1.5-3.2-3.3-3.2s-2,.5-2.7,1.5l-3.3,4.9-.2.3v-3.1c0-1.2-.2-1.9-.8-2.5-.6-.7-1.5-1.1-2.4-1.1-1.9,0-3.2,1.5-3.2,3.6v12.5c0,2.3,1.3,3.7,3.3,3.7s3.2-1.5,3.2-3.7v-3.4l4.8,6.1c.5.6,1.3,1,2.3,1,1.8,0,3.2-1.5,3.2-3.3s-.2-1.3-.6-1.8l-4-5.1M97.9,40.2c-1.1,0-2.1.6-2.6,1.4-.5.7-.6,1.3-.6,2.5v3.6l-.9-1.2-4.2-5.1c-.7-.9-1.5-1.3-2.4-1.3-2,0-3.4,1.4-3.4,3.5v12.4c0,1.4.1,2,.7,2.8.6.8,1.6,1.3,2.6,1.3s1.9-.4,2.5-1.2c.6-.7.7-1.3.7-2.6v-4.1l5.1,6.5c.7.9,1.5,1.3,2.5,1.3s1.9-.4,2.5-1.2c.6-.7.7-1.4.7-2.9v-12c0-1.2-.2-1.9-.8-2.6-.6-.7-1.5-1.2-2.5-1.2M53.4,46.7c.1,0,.2,0,.3.1,1.3.6,2.1,1.9,2.1,3.4s-.6,2.4-1.6,3.1c-.8.5-1.3.6-3.5.6v-7.5h.5c1,0,1.6,0,2.2.3h0M61.5,46.7c-.5-1.5-1.4-2.8-2.6-3.8-1.9-1.7-4.2-2.5-7.1-2.5h-4c-1.9,0-3.1.7-3.5,2.1-.1.4-.1.6-.1,2.3v10.8c0,1.3,0,1.7.1,2.1.2.8.6,1.3,1.3,1.8.6.4,1.2.5,2.7.5h2.7c1.3,0,2.5,0,3.3-.2,1.7-.4,3.3-1.2,4.6-2.4,2-1.8,3.1-4.5,3.1-7.2s-.2-2.4-.6-3.5M77.7,40.2c-1,0-1.9.5-2.5,1.2-.6.7-.7,1.1-.7,2.6v7.8c0,1.3-.6,2.2-1.8,2.2s-1.8-.8-1.8-2.3v-7.7c0-1.4-.2-2.1-.9-2.8-.6-.6-1.5-1-2.4-1s-1.9.5-2.5,1.3c-.6.7-.7,1.2-.7,3v6.9c0,2.6.4,4,1.6,5.6,1.6,2.1,4,3.4,6.6,3.4s4.6-1.1,6.2-2.9c1.4-1.6,2.1-3.5,2.1-6.1v-6.9c0-1.8-.1-2.3-.8-3.1-.6-.7-1.6-1.2-2.5-1.2"/>
  <path class="st3" d="M120.4,65.4h0c0-.8-.3-1.3-.7-1.8-.6-.7-1.6-1.2-2.5-1.2s-1.8.5-2.5,1.2c-.4.5-.6.9-.7,1.7,0,.2,0,.5,0,.8v7.8c0,1.4-.7,2.2-1.8,2.2s-1.8-.9-1.8-2.3v-7.7c0-.3,0-.6,0-.8,0-.9-.3-1.4-.8-1.9-.6-.6-1.5-1-2.3-1s-1.9.5-2.5,1.2c-.4.5-.6.9-.6,1.7,0,.3,0,.8,0,1.3v6.9c0,2.5.4,3.9,1.5,5.5,0,0,0,0,0,0,1.5,2.1,4,3.4,6.6,3.4s4.6-1,6.2-2.9c.2-.2.3-.4.5-.6,1.1-1.5,1.6-3.2,1.6-5.5v-7c0-.5,0-.9,0-1.3Z"/>
  <path class="st3" d="M155.1,64.8h-.5v-1h.8c.4,0,.7,0,.7.5s-.6.5-1,.5ZM155.6,65c.5,0,.9-.2.9-.8s-.1-.5-.3-.6c-.2-.1-.5-.1-.7-.1h-1.2v2.8h.3v-1.3h.6l.2.3.6,1h.4l-.6-1-.2-.3"/>
  <path class="st3" d="M157.7,65.4c0-.1,0-.3,0-.4,0-1.4-1.1-2.5-2.5-2.5s-2.5,1.1-2.5,2.5,0,.3,0,.4c.2,1.2,1.2,2.1,2.5,2.1s2.3-.9,2.5-2.1h-.3c-.2,1-1.1,1.8-2.2,1.8s-2-.8-2.2-1.8c0-.1,0-.3,0-.4,0-1.2,1-2.2,2.2-2.2s2.2,1,2.2,2.2,0,.3,0,.4h.3Z"/>
  <path class="st3" d="M50.7,68.8v-.3h.6c1.1,0,1.7,0,2.3.3h0c0,0,.2,0,.2.1,1.3.6,2.1,2,2.1,3.4s-.6,2.4-1.6,3.2c-.8.5-1.3.6-3.6.7h0v-7.3ZM59.5,79.1c1.8-1.8,2.8-4.3,2.8-6.8s-.2-2.4-.6-3.5c-.5-1.3-1.3-2.5-2.2-3.4-.1-.1-.2-.2-.3-.3-1.9-1.7-4.1-2.5-7.1-2.5h-4c-1.9,0-3,.7-3.5,2.1,0,.2-.1.4-.1.7h0c0,.3,0,.8,0,1.6v10.8c0,.7,0,1.1,0,1.4,0,.3,0,.5.1.7.2.7.6,1.3,1.3,1.7.6.4,1.2.5,2.7.5h2.7c1.3,0,2.5,0,3.3-.2,1.7-.3,3.3-1.2,4.6-2.4.1-.1.2-.2.4-.3h0"/>
  <path class="st3" d="M73.2,76.3c-2.1,0-3.9-1.8-3.9-4s1-2.9,2.3-3.5c.5-.2,1-.3,1.6-.3s1.1.1,1.5.3c1.4.6,2.4,2,2.4,3.5s-1.8,3.9-3.9,3.9ZM82.8,68.8h0c-.5-1.3-1.2-2.5-2.1-3.4-1.9-2-4.6-3.3-7.5-3.3s-5.7,1.3-7.6,3.3h0c-.9,1-1.6,2.2-2.1,3.4h0c-.4,1.1-.6,2.2-.6,3.4,0,2.7,1,5.1,2.6,6.9h0c1.9,2.1,4.6,3.4,7.7,3.4s5.8-1.3,7.6-3.4h0c1.6-1.8,2.6-4.2,2.6-6.8s-.2-2.4-.6-3.5"/>
  <path class="st3" d="M101.9,65.4h0c0-.7-.3-1.3-.7-1.8-.6-.7-1.5-1.2-2.4-1.2s-2.1.6-2.6,1.4c-.3.5-.5.9-.5,1.5h0c0,.3,0,.6,0,1v3.8l-1.1-1.3-2.8-3.4-1.4-1.7c-.7-.9-1.4-1.3-2.4-1.3-1.8,0-3.1,1.1-3.3,2.9,0,.2,0,.3,0,.5v12.4c0,.3,0,.6,0,.9,0,.8.2,1.3.6,1.8.6.8,1.6,1.2,2.5,1.2s1.8-.4,2.5-1.2c.5-.6.6-1.1.7-1.9,0-.2,0-.4,0-.6v-4.3l3.8,4.9,1.4,1.8c.7.9,1.5,1.3,2.5,1.3s1.9-.4,2.5-1.2c.4-.5.6-1,.7-1.9,0-.3,0-.6,0-1v-12c0-.3,0-.5,0-.8Z"/>
  <path class="st3" d="M137.6,65.4h0c0-1.4-1.1-2.5-2.6-2.7-.2,0-.3,0-.6,0-.3,0-.7,0-1.6,0h-6.5c-2.6,0-2.8,0-3.5.3-.9.4-1.6,1.4-1.6,2.5h0c0,0,0,.1,0,.2,0,.8.3,1.5.9,2.1.6.6,1.3.8,2.4.8h1.8v9.9c0,.3,0,.5,0,.8,0,.8.2,1.2.5,1.8.6.8,1.6,1.3,2.6,1.3s2-.5,2.6-1.4c.3-.5.5-1,.5-1.6,0-.2,0-.5,0-.8v-9.8h1.5c1.2,0,2-.2,2.5-.7.6-.6,1-1.4,1-2.3s0-.1,0-.2Z"/>
  <path class="st3" d="M150,71.4c-.9-.8-2.5-1.5-4.2-2-.7-.2-1.1-.4-1.4-.6h0c-.4-.2-.6-.5-.6-.8s.4-.8.8-.8.7.2,1.4.7c.6.5,1.2.8,1.6,1h0c.3.1.6.2,1,.2s.6,0,.9-.2h0c1-.4,1.6-1.3,1.6-2.5s0-.7-.2-1c-.6-1.9-3.1-3.3-6.1-3.3s-5.2,1.2-6.4,3.3c-.5.9-.8,2-.8,3.1s0,.2,0,.3h0c.1,2.5,1.5,4.3,4.2,5.2.5.2,1.1.4,1.6.6,1,.4,1.1.4,1.3.6.4.2.5.5.5.9s-.3.9-.9.9-.7-.1-2.1-1.2c-.8-.7-1.5-.9-2.3-.9-1.6,0-2.9,1.3-2.9,2.9s.1,1,.3,1.5h0c.9,2,3.6,3.4,7,3.4s4.1-.6,5.4-2c.4-.4.8-.9,1.1-1.5.5-.9.8-2,.8-3.1,0-1.8-.8-3.6-1.9-4.6Z"/>
  <path class="st0" d="M6.1,45c-1.4,0-2.6-.6-3.5-1.5,0,.4-.2.8-.2,1.2v3.8c.5-1.1,1.7-2.3,3.7-3.6Z"/>
  <path class="st5" d="M9.5,63.4c-1.6-.2-2.6-.8-3-1.9,0,0-3.9-9.9-4-10,0-.1-.1-.2-.2-.3v26.4c0,2.6,2.1,4.7,4.7,4.7h12.5c-.4-.4-.8-.9-1.1-1.5,0,0-7.6-14.8-9-17.4Z"/>
  <path class="st7" d="M35.5,40h-7s0,0,0,0c.1.2.2.4.3.6,0,.1,0,.3.1.5,3.4,8.6,3.9,9.8,4,10h0s0,0,0,0c0,0,0,0,0,0,.1.3.2.6.2,1,0,.8-.4,1.6-1.1,2.5.9,2.6,2.4,7.9,5.2,18.2v.5c.1,0,.1,0,.1,0,1.1,3.5-.5,6.9-4.3,9.1h2.4c2.6,0,4.7-2.1,4.7-4.7v-32.8c0-2.6-2.1-4.7-4.7-4.7Z"/>
  <path class="st6" d="M20.8,40.4s0,0,0,0c-2,.4-4.4,1.2-6.6,2-2.2.9-4.4,2-6.2,3-3.1,1.8-4.7,3.5-4.4,4.6,0,0,0,0,0,0,0,.1,0,.2,0,.3,0,0,0,.2.1.2,0,0,0,0,0,.1l4,10.1c.2.6,1,.9,2.2,1,.2,0,.4.1.5.3l9.2,17.8c1.8,3.5,6.8,3.4,10.7,1.8,4.4-1.8,6.4-4.9,5.4-8.2,0,0-.2-.6-.2-.6-3-10.9-4.5-16.1-5.4-18.6,0-.2,0-.4.1-.6.8-.9,1.2-1.7.9-2.3,0,0-4-10.1-4-10.1,0,0,0,0,0-.1,0-.1,0-.2,0-.3,0,0,0-.2-.2-.3,0,0,0,0,0,0-.5-1-2.9-1.1-6.3-.3Z"/>
  <path class="st6" d="M13,27.9h0c-1.1.8-1.8,2-2,3.5-.3,2,.9,3.4,1.9,4.6,1.1,1.3,2.1,2.4,1.5,4.4,0,.2,0,.4,0,.5,0,.2.2.3.4.3.4.1.8,0,.9-.5.8-2.7-.6-4.4-1.7-5.7-1.1-1.3-1.7-2.1-1.6-3.5.2-1.1.7-1.9,1.5-2.6,1.2-.9,2.8-1,3.2-.9,1.7.3,2.2,1.5,2.3,2.1,0,.4.1.7,0,1.1,0,.8-.5,1.4-1.1,1.9,0,0,0,0,0,0-.7.4-1.3.4-1.7,0-.3-.3-.4-.9-.3-1.2.1-.3.5-.4,1-.3.2,0,.4,0,.5-.1.2-.1.3-.3.3-.5,0-.4-.2-.8-.6-.8-1.1-.2-2.1.2-2.5,1-.5.9-.2,2.1.5,2.8.9.8,2.1.9,3.4.2h0c1.4-1.1,2-2.9,1.6-4.6-.4-1.7-1.7-2.9-3.5-3.1-.7-.1-2.7,0-4.2,1.2Z"/>
  <path class="st6" d="M4.6,35.7c-1.4,1-2.1,2.3-2.3,3.4-.1,1,.1,2,.7,2.8,1.1,1.6,3.4,2.4,5.6.9,0,0,0,0,0,0,1.2-.9,1.1-2.7.4-3.8-.8-1.1-2-1.2-3.2-.4-.3.2-.4.7-.2,1,.1.2.3.3.5.3.2,0,.4,0,.5-.1.7-.5,1-.2,1.2,0,.2.3.3.7.3,1.1,0,.3-.1.5-.3.6-1.6,1-3,.5-3.6-.5-.8-1.1-.7-2.9,1.2-4.2,1.9-1.3,3.3-.5,3.9.1,1.2,1.1,1.7,3.1,1,4.3-.2.3,0,.8.3,1,.2,0,.4.1.5,0,.2,0,.3-.2.4-.3,1-1.8.4-4.5-1.3-6-1.6-1.5-3.8-1.6-5.7-.2Z"/>
  <path class="st4" d="M24.7,43.2c-2.3.3-5.8,1.2-9.1,2.5-3.3,1.3-6.5,3.1-8.4,4.5-1.3.1-2.1,0-2.4-.2.2-.8,3.4-3.7,10-6.3,6.6-2.6,10.8-2.7,11.5-2.3,0,.3-.6,1-1.6,1.8Z"/>
  <path class="st4" d="M34.6,74c.9,2.8-1.3,5.2-4.6,6.5-3.5,1.4-7.7,1.5-9-1.1-.4-.9-6.2-11.5-9-17.4,2.9-.3,6.4-1.3,9-2.3,2.6-1,5.9-2.7,8.1-4.4,2,6.3,5.2,17.9,5.5,18.8Z"/>
  <path class="st4" d="M20.5,58.3c-6.1,2.4-10.7,2.6-11.4,2l-3.3-8.3c3.1.2,8-1.3,11.2-2.5,3.2-1.3,7.7-3.5,9.9-5.8l3.3,8.3c-.1.9-3.6,3.9-9.6,6.3Z"/>
  <path class="st2" d="M21.5,67.4c-.2.2-.3.3-1,.5-.3-.7-.6-1.4-.9-2.1,0,0,.1,0,.2,0,.3,0,.5-.1.7-.1,0,0,0,0,.1,0,.5,0,.9.4,1,.8.1.3,0,.7-.1,1ZM22.9,64.8h0c-.3-.4-.7-.6-1.2-.8-.8-.3-1.5-.3-2.4,0-.4.1-.8.2-1.2.3-.6.1-.9.4-.8.8,0,.1,0,.2.2.6.5,1,.9,2,1.4,3,.2.4.2.5.3.6.2.2.3.3.6.4.2,0,.4,0,.9,0,.3,0,.5-.1.8-.2.4-.1.7-.2.9-.3.5-.2.8-.6,1.1-1.1.4-.7.4-1.6.1-2.4-.1-.3-.3-.7-.6-.9"/>
  <path class="st3" d="M27,65.2c-.2.3-.3.4-.9.7-.3-.7-.5-1.5-.8-2.2,0,0,.1,0,.1,0,.3-.1.5-.2.6-.2,0,0,0,0,0,0,.4,0,.8.3.9.7.1.3,0,.8-.1,1.1ZM28.3,62.1h0c-.3-.3-.7-.6-1.1-.7-.7-.2-1.4,0-2.2.4-.4.2-.8.4-1.1.5-.5.2-.8.6-.8,1.1,0,.1,0,.2.2.7.4,1,.8,2.1,1.2,3.1.1.4.2.5.3.6.1.2.3.3.6.3.2,0,.4,0,.8-.2.3-.1.5-.2.7-.4.4-.2.7-.4.9-.5.4-.3.8-.8,1-1.4.3-.8.4-1.8.1-2.6-.1-.4-.3-.7-.5-.9"/>
</svg>