<?xml version="1.0" encoding="UTF-8"?>
<svg id="Layer_1" xmlns="http://www.w3.org/2000/svg" version="1.1" viewBox="0 0 160 110">
  <!-- Generator: Adobe Illustrator 29.5.0, SVG Export Plug-In . SVG Version: 2.1.0 Build 137)  -->
  <defs>
    <style>
      .st0 {
        fill: #ee4799;
      }

      .st0, .st1, .st2, .st3, .st4 {
        fill-rule: evenodd;
      }

      .st1, .st5 {
        fill: #ff8302;
      }

      .st2 {
        fill: #fe479d;
      }

      .st3, .st6 {
        fill: #fe0b88;
      }

      .st4 {
        fill: #f5822a;
      }
    </style>
  </defs>
  <g>
    <path class="st3" d="M93.5,79.5l-5.7-7.2v5h0c0,1.9-1.5,3.4-3.4,3.4s-3.2-1.3-3.4-3h0v-14.4h0c0-1.9,1.5-3.4,3.4-3.4h.4c.9,0,1.7.5,2.3,1.2h0l5.7,7.2v-4.9h0c0-1.9,1.5-3.4,3.4-3.4s3.2,1.3,3.4,3.1h0v14.4h0c0,1.9-1.5,3.4-3.4,3.4s-.2,0-.4,0h0c-.9,0-1.7-.4-2.3-1.1h0Z"/>
    <path class="st3" d="M120.5,62.8v9.9h0c-.5,4.8-4.5,8.4-9.3,8.4s-8.8-3.6-9.3-8.4h0v-9.9h0c.2-1.8,1.7-3.1,3.4-3.1s3.2,1.3,3.4,3.1h0v9.1h0c0,1.3,1.2,2.3,2.5,2.3s2.4-1,2.5-2.3h0v-9.1h0c.2-1.8,1.7-3.1,3.4-3.1s3.2,1.3,3.4,3.1h0Z"/>
    <path class="st3" d="M138.4,70c1.1,1.2,2.3,1.9,3.8,2.2h0c.4.1.7.2,1.2.2h0c.3,0,.5.1.8.2h0c.1.1.3.2.4.3h0c.1.2.2.4.2.6h0c0,.4-.1.6-.3.8h0c-.1.1-.4.2-.6.2s-.1,0-.1,0h0c-.4,0-.6-.1-1-.3h0c-.4-.1-.7-.3-1.1-.5h0c-.4-.1-.6-.3-.9-.6h0c-.4-.3-.9-.4-1.4-.4s-.8.1-1.2.3h0c-.7.4-1.2,1-1.4,1.8h0c-.1.4-.1.6-.1,1,0,1,.4,1.9,1.1,2.6h0c1.9,1.6,3.9,2.4,6.4,2.4s.2,0,.3,0h0c2.9,0,5.4-1.7,6.5-4.4h0c.4-.9.5-1.7.5-2.6s-.3-2.5-1-3.7h0c-.6-1-1.3-1.7-2.3-2.2h0c-.5-.3-1-.5-1.5-.8h0c-.6-.2-1.2-.4-1.8-.6h0c-.4-.1-.7-.2-1-.3h0c-.2,0-.4-.1-.6-.3h0c-.2-.2-.4-.4-.4-.7h0c0-.4.2-.6.5-.8h0c.2-.1.3-.2.5-.2h0c.4,0,.8.1,1.1.3h0c.6.4,1.1.6,1.8.9h0c.4.1.8.2,1.2.2s.6,0,.8-.1h0c.8-.4,1.4-.9,1.7-1.8h0c0-.2,0-.4,0-.6,0-.9-.4-1.8-1.2-2.3h0c-.9-.7-1.8-1.1-2.8-1.4h0c-.9-.3-1.7-.4-2.7-.4s-1.6.1-2.5.4h0c-1.2.3-2.1.9-2.9,1.8h0c-1.2,1.2-1.7,2.7-1.7,4.4s.6,3.1,1.7,4.4h0Z"/>
    <polygon class="st0" points="124.7 66.6 125.4 66.6 124.7 66.6 124.7 66.6"/>
    <path class="st3" d="M125.4,66.6v11h0c.2,1.8,1.7,3,3.4,3s3.4-1.5,3.4-3.4h0v-10.7h.7c1.9,0,3.4-1.5,3.4-3.4s-1.5-3.4-3.4-3.4h-8.4c-1.9,0-3.4,1.5-3.4,3.4s1.5,3.4,3.4,3.4h.8Z"/>
    <polygon class="st1" points="45.9 50.6 45.9 43.4 45.9 50.6 45.9 50.6"/>
    <path class="st1" d="M56.2,41.1c-1.9-2.6-4.4-4.2-7.6-4.6h-5.2c-2.4,0-4.3,1.9-4.3,4.3v12.4c0,2.4,1.9,4.3,4.3,4.3h5.2c3.2-.4,5.8-1.9,7.6-4.6,1.2-1.8,1.7-3.7,1.7-5.9s-.6-4.1-1.7-5.9ZM50.5,49.1c-.6.8-1.4,1.3-2.4,1.5h-2.2v-7.3h2.1c1.1.2,1.8.7,2.5,1.5.4.7.6,1.3.6,2.1s-.2,1.4-.6,2.1Z"/>
    <polygon class="st1" points="59.6 49.5 59.6 39.6 59.6 49.5 59.6 49.5"/>
    <path class="st1" d="M59.6,39.6c.2-1.8,1.7-3.1,3.4-3.1s3.2,1.3,3.4,3.1h0v9.1h0c0,1.3,1.1,2.4,2.5,2.4s2.4-1,2.5-2.4h0v-9.1h0c.2-1.8,1.7-3.1,3.4-3.1s3.2,1.3,3.4,3.1h0v9.9h0c-.5,4.8-4.5,8.4-9.3,8.4s-8.8-3.6-9.3-8.4v-9.9h0Z"/>
    <path class="st1" d="M95.4,36.5c-1.9,0-3.4,1.5-3.4,3.4v4.9l-5.7-7.2c-.6-.7-1.3-1.1-2.3-1.2h-.4c-1.9,0-3.4,1.5-3.4,3.4h0v14.5c.2,1.7,1.7,3,3.4,3s3.4-1.5,3.4-3.4v-5l5.7,7.2c.6.7,1.4,1.1,2.3,1.1.1,0,.2,0,.4,0,1.9,0,3.4-1.5,3.4-3.4v-14.4c-.2-1.8-1.7-3.1-3.4-3.1Z"/>
    <polygon class="st4" points="143.3 56.3 137.6 49.1 143.3 56.3 143.3 56.3"/>
    <path class="st1" d="M143.3,56.3c.6.7,1.4,1.1,2.3,1.1h0c.1,0,.2,0,.4,0,1.9,0,3.4-1.5,3.4-3.4h0v-14.4h0c-.2-1.8-1.7-3.1-3.4-3.1s-3.4,1.5-3.4,3.4h0v4.9l-5.7-7.2h0c-.6-.7-1.4-1.1-2.3-1.2h-.4c-1.9,0-3.4,1.5-3.4,3.4h0v14.5h0c.2,1.7,1.7,3,3.4,3s3.4-1.5,3.4-3.4h0v-5l5.7,7.2h0Z"/>
    <path class="st1" d="M108.3,54c0,1.9-1.5,3.4-3.4,3.4s-3.2-1.3-3.4-3h0v-14.4c0-1.9,1.5-3.4,3.4-3.4s3.4,1.5,3.4,3.4v4.9l5.7-7.3h0c.7-.7,1.5-1.1,2.5-1.1,1.9,0,3.4,1.5,3.4,3.4s-.2,1.5-.7,2.1h0l-4,4.7,4,5.1h0c.5.6.7,1.3.7,2.1,0,1.9-1.5,3.4-3.4,3.4s-1.8-.4-2.5-1.1h0l-5.7-7.3v4.9h0Z"/>
    <path class="st1" d="M121.7,54.4v-14.4c0-1.9,1.5-3.4,3.4-3.4s3.4,1.5,3.4,3.4v14.1h0c0,1.9-1.5,3.4-3.4,3.4s-3.2-1.3-3.4-3h0Z"/>
    <path class="st1" d="M157.6,39.6v-.2c0-1.8-1.4-3.2-3.2-3.2s-3.2,1.4-3.2,3.2h0c0,.1,0,3.7,0,3.7h0c.3,1.4,1.4,2.3,2.8,2.3s2.5-.9,2.8-2.3h0l.6-3.4h0Z"/>
    <path class="st3" d="M56.2,64.3c-1.9-2.6-4.4-4.2-7.6-4.6h-5.2c-2.4,0-4.3,1.9-4.3,4.3v12.4c0,2.4,1.9,4.3,4.3,4.3h5.2c3.2-.4,5.8-1.9,7.6-4.5,1.2-1.9,1.7-3.7,1.7-5.9s-.6-4.1-1.7-5.9ZM50.5,72.3c-.6.8-1.4,1.3-2.4,1.5h-2.2v-7.3h2.1c1.1.2,1.8.7,2.5,1.6.4.6.6,1.3.6,2.1s-.2,1.4-.6,2.1Z"/>
    <path class="st3" d="M69.5,59.4c-6,0-10.8,4.9-10.8,10.9s4.9,10.8,10.8,10.8,10.9-4.9,10.9-10.8-4.9-10.9-10.9-10.9ZM69.5,74.2c-2.2,0-4-1.8-4-4s1.8-4,4-4,4,1.8,4,4-1.8,4-4,4Z"/>
    <path class="st3" d="M155,81c1.2,0,2.2-.9,2.2-2.2s-1-2.2-2.2-2.2-2.3.9-2.3,2.2,1,2.2,2.3,2.2h0ZM153.2,78.8c0-1,.8-1.8,1.8-1.8s1.8.8,1.8,1.8-.8,1.9-1.8,1.9-1.8-.8-1.8-1.9h0ZM154.5,79h.4l.7,1.1h.4l-.7-1.1c.4,0,.7-.2.7-.7s-.3-.7-.9-.7h-1v2.6h.4v-1.1h0ZM154.5,78.6v-.8h.5c.3,0,.6,0,.6.4s-.3.4-.6.4h-.5Z"/>
  </g>
  <g>
    <path class="st2" d="M21.8,68.7c-.3-.2-.6-.4-.9-.6,0,.2.1.4.2.6t0,0c0,.2,0,.5-.3.5-.2,0-.4,0-.5-.2h0c-.2-.6-.4-1.1-.6-1.7t0,0s0,0,0,0c0-.2,0-.5.3-.5,0,0,0,0,0,0h0c.1,0,.2,0,.3,0h0c.3.2.6.4,1,.6,0-.2-.1-.4-.2-.6h0c0-.2,0-.5.3-.5.2,0,.4,0,.5.2h0c.2.6.4,1.1.6,1.7h0c0,.2,0,.5-.3.5,0,0,0,0,0,0h0c-.1,0-.2,0-.3,0h0Z"/>
    <path class="st2" d="M24.3,65.7c.1.4.3.8.4,1.1t0,0c.1.6-.2,1.2-.8,1.3-.6.2-1.2,0-1.4-.6h0c-.1-.4-.3-.8-.4-1.2h0c0-.2,0-.4.3-.5.2,0,.4,0,.5.2h0c.1.4.2.7.4,1.1t0,0c0,.1.2.2.4.2.2,0,.2-.2.2-.4h0c-.1-.4-.2-.7-.4-1.1h0c0-.2,0-.4.3-.5.2,0,.4,0,.5.2t0,0Z"/>
    <path class="st2" d="M26.7,65.8c.2,0,.3.1.5.1t0,0c0,0,0,0,.1,0t0,0s0,0,.1,0t0,0s0,0,0,0h0s0,0,0,0c0,0,0,0,0,0h0s0,0,0,0t0,0s0,0,0,0c0,0,0,0,0,0h0s0,0-.1,0h0c0,0,0,0-.1,0t0,0s0,0-.1,0h0c0,0-.1,0-.2,0,0,0,0,0-.1,0t0,0c0,0-.1.2-.1.3h0s0,0,0,.1c0,.1.1.2.2.2h0c.3.1.6.1.8,0,0,0,0,0,0,0h0s0,0,0,0c.3-.1.6-.4.6-.7t0,0c0-.1,0-.2,0-.3,0-.1-.1-.3-.3-.4h0c-.1,0-.2-.1-.4-.2t0,0c0,0-.1,0-.2,0h0c0,0-.2,0-.2,0h0s0,0-.1,0h0s0,0,0,0h0s0,0,0,0t0,0s0,0,0-.1t0,0s0,0,0,0h0s0,0,.1,0h0c0,0,.2,0,.2,0h0c0,0,0,0,.2,0,0,0,0,0,0,0h0c0,0,.1-.2.1-.3h0s0,0,0,0c0-.1-.1-.2-.2-.2h0c-.1,0-.2,0-.4,0h0c-.1,0-.2,0-.3,0-.1,0-.2,0-.3.1t0,0c-.1,0-.2.2-.3.3t0,0c0,.2,0,.4,0,.6,0,.2.2.3.4.4t0,0Z"/>
    <path class="st0" d="M25,66s0,0,0,0c0,0,0,0,0,0t0,0Z"/>
    <path class="st2" d="M25.1,65.9c.1.4.3.9.4,1.3h0c0,.2.3.3.5.2.2,0,.3-.3.3-.5h0c-.1-.4-.3-.8-.4-1.2,0,0,0,0,0,0,.2,0,.3-.3.3-.5,0-.2-.3-.3-.5-.3-.3.1-.6.2-1,.3-.2,0-.3.3-.3.5,0,.2.3.3.5.3,0,0,0,0,0,0h0Z"/>
    <path class="st4" d="M15.1,67.2c-.1-.3-.2-.6-.3-.8,0,.3.2.5.3.8t0,0Z"/>
    <path class="st4" d="M15.9,65.7c-.3-.2-.7-.3-1.1-.2-.2,0-.4.1-.6.2-.3,0-.4.4-.3.6.2.5.4.9.5,1.4.1.3.4.4.7.3.2,0,.4-.1.6-.2.4-.2.6-.4.7-.8,0-.3,0-.5,0-.7,0-.3-.2-.4-.4-.6ZM15.6,66.9c0,.1-.1.2-.2.3,0,0-.2,0-.3,0-.1-.3-.2-.6-.3-.8,0,0,.2,0,.3,0,.1,0,.2,0,.4,0,0,0,.1.1.2.2,0,0,0,.2,0,.3Z"/>
    <path class="st4" d="M16.7,66.5c-.1-.4-.3-.8-.4-1.1.1.4.3.8.4,1.1h0Z"/>
    <path class="st4" d="M16.3,65.4c0-.2,0-.4.3-.5.2,0,.4,0,.5.2h0c.1.4.2.7.4,1.1h0c0,.2.2.2.4.2.2,0,.2-.2.2-.4h0c-.1-.4-.2-.7-.4-1.1h0c0-.2,0-.4.3-.5.2,0,.4,0,.5.2h0c.1.4.3.8.4,1.2h0c.1.6-.2,1.2-.8,1.3-.6.2-1.2,0-1.4-.6-.1-.4-.3-.8-.4-1.1h0Z"/>
    <path class="st4" d="M19.3,66.3c0,.2.3.3.5.2.2,0,.3-.3.3-.5-.3.1-.5.2-.8.3h0Z"/>
    <path class="st4" d="M19.3,66.3c-.2-.6-.4-1.1-.6-1.7h0s0,0,0,0c0-.2,0-.5.3-.5,0,0,0,0,0,0h0c.1,0,.2,0,.3,0h0c.3.2.6.4.9.6,0-.2-.1-.4-.2-.6h0c0-.2,0-.5.3-.5.2,0,.4,0,.5.2t0,0c.2.6.4,1.1.6,1.7h0c0,.2,0,.5-.3.5,0,0,0,0,0,0h0c-.1,0-.2,0-.3,0h0c-.3-.2-.6-.4-1-.6,0,.2.1.4.2.6-.3.1-.5.2-.8.3h0Z"/>
    <path class="st4" d="M26.7,64.1c-.3-.2-.7-.4-1-.6.3.2.7.4,1,.6h0Z"/>
    <path class="st4" d="M26.7,64.1c.1,0,.2,0,.3,0h0s0,0,0,0c.2,0,.3-.3.2-.5h0c-.2-.6-.5-1.1-.7-1.7t0,0c-.1-.2-.3-.3-.5-.2-.2,0-.3.3-.2.5h0c0,.2.2.4.2.6-.3-.2-.7-.4-1-.6t0,0c-.1,0-.2,0-.3,0h0s0,0,0,0c-.2,0-.3.3-.2.5,0,0,0,0,0,0t0,0c.2.6.4,1.1.6,1.7h0c0,.2.3.3.5.2.2,0,.3-.3.2-.5t0,0c0-.2-.1-.4-.2-.6.3.2.7.4,1,.6h0Z"/>
    <path class="st4" d="M22.6,65.2c0,.2,0,.5-.3.5-.2,0-.4,0-.5-.2t0,0c-.2-.6-.4-1.1-.6-1.7,0-.2,0-.5.3-.5.2,0,.5,0,.5.3,0,.2.1.4.2.6.1-.4.2-.7.4-1.1t0,0c0-.1.1-.2.2-.2.2,0,.5,0,.5.3,0,0,0,.2,0,.3h0c0,.2-.2.5-.3.7.2.1.5.3.7.4h0c0,0,.1.1.2.2,0,.2,0,.5-.3.5-.1,0-.2,0-.3,0t0,0c-.3-.2-.6-.4-1-.6,0,.2.1.4.2.6t0,0Z"/>
    <path class="st4" d="M24.1,64.7c-.2-.6-.4-1.1-.6-1.7,0-.2,0-.5.2-.5.2,0,.5,0,.5.3.2.5.4,1.1.6,1.6t0,0c0,.2,0,.5-.3.5-.2,0-.4,0-.5-.2t0,0Z"/>
    <path class="st4" d="M27.5,61.7s0,0,0,0c0-.2-.3-.3-.5-.3-.2,0-.3.3-.2.5,0,0,0,0,0,0t0,0c0,.1.1.3.2.4h0c.1.1.3.2.4.2.2,0,.2-.2.2-.4t0,0c0-.1,0-.3-.1-.4t0,0Z"/>
    <path class="st2" d="M16.9,68.4c-.3-.2-.7-.3-1.1-.3-.2,0-.4.1-.6.2-.3,0-.4.4-.3.6.2.5.4.9.6,1.4.1.3.4.4.7.4.2,0,.4-.1.6-.2.3-.2.5-.4.6-.8,0-.3,0-.5,0-.8,0-.3-.2-.5-.5-.6ZM16.6,69.5c0,.1,0,.2-.2.3,0,0-.2,0-.2,0-.1-.3-.2-.6-.4-.8,0,0,.2,0,.2,0,.1,0,.2,0,.4,0,0,0,.1.1.2.2,0,0,0,.2,0,.3Z"/>
    <path class="st2" d="M18.2,67.3c-.7.2-1,1-.8,1.7.3.7,1,1.1,1.7.9.7-.2,1-1,.8-1.7-.2-.7-1-1.1-1.7-.9ZM18.9,69.1c-.2,0-.5,0-.6-.3,0-.3,0-.5.3-.6.3,0,.5,0,.6.3,0,.3,0,.5-.3.6Z"/>
  </g>
  <g>
    <path class="st6" d="M2.3,49.6c0-1.4,0-5.5,0-6.3,0-.1,0-.5.1-.4.4.4,1.4,1.3,2.1,1.6.6.4,1.6.5,2.1.8,0,.5-1.3,1.1-1.7,1.5-1.1.8-1.8,1.6-2.5,2.7h0ZM17.2,81c-.2.3-2.3,0-3.1.1-2.3,0-4.4.2-6.5-.2-3.2-.6-5.4-3.8-5.3-7,0-1.7,0-10.2,0-15,0-1.2-.3-4,.3-2.7.9,1.7,2,3.6,2.8,5.4.5,1.1,2.1,1.3,2.9,2.3,3.2,5.6,6.4,11.3,8.9,16.8v.2ZM15.7,36.6c.4-.4,1.5,0,3.1-.2,3.1,0,7.5,0,9,0,3.5-.2,6.9,2.4,7.4,5.9.2,1.8,0,2.4.1,5.8,0,8.1,0,23.7,0,26,0,2.7-1.8,6-4.6,6.6,0,0-.1,0,0-.2.5-.7,1.3-1.4,1.9-2.4.8-1.1,1.2-2.2,1-3.5-.2-1.7-.3-3.6-.7-5.3-1.5-4.3-1.6-9-2.6-13.3,0-.3-.2-.7-.2-1,0-1.2.9-2.1.6-3.4-.3-1.1-1.2-1.9-1.5-3-.9-2.7-1-6.1-3.5-8-2.2-1.1-4.7-1.3-7.1-.8-.6,0-1.2.2-1.6,0-.4-.1-.6-.5-.6-1.1,0-.8-.3-1.5-.4-2.2v-.2Z"/>
    <path class="st5" d="M10.4,36.6c1.4,1.5,1.5,3.7.7,5.4-.3.1-.5.6-.9.4-.2-.2-.5-.2-.5-.4,0-.3.3-.4.6-.5.4-1.2.5-2.6-.2-3.8-.8-.9-2.1-1.2-3.2-1.1-1.3.8-2.7,1.6-3.1,3.4,0,1,.7,1.7,1.3,2.2.7.3,1.4.7,2,0,.7-.6,1-1.5,1-2.3-1.1-.5-1.5,1.4-2.4.4,0-.6.2-1.4.7-1.8.7-.4,1.4-.2,2.1.3.6.8,1.2,1.9.7,3-.7,1-1.8,1.6-2.8,2.2-1.3-.3-2.9-1-3.4-2.5-.5-.8-.7-2.1-.2-3.1.4-1.2,1.2-2.1,2.2-2.6,1.8-.3,3.8-.5,5.3.8h0Z"/>
    <path class="st5" d="M12.5,42.3h0c0,0,.1-.2.1-.2.2-.3.3-.7.5-1.1.2-.4.3-.8.4-1.2.2-.8,0-1.6-.5-2.3-.3-.5-.6-1-.9-1.4-.3-.4-.6-.7-.8-1.1-.5-.7-1-1.5-1.3-2.7.3-1.6,1.3-3.2,2.9-4,.9-.3,1.8-.6,2.7-.7,1.8.2,3.5,1.2,4,3,0,1.8-.5,3.8-2.3,4.6-.7.3-1.2.2-1.7,0-.3-.1-.5-.3-.7-.4-.2-.2-.5-.3-.7-.4-.3-.3-.4-.7-.4-1.1,0-.2,0-.4.1-.6,0-.2.1-.4.2-.5.1-.4.4-.7.7-.9.1-.1.3-.2.5-.3.2,0,.3-.2.5-.3h0c.1,0,.3,0,.4.1.1,0,.3.1.4.2.2.2.4.4.5.7.2.8-.3.9-.7.9,0,0-.2,0-.3,0,0,0-.2,0-.2,0-.1,0-.2.1-.2.3.4.6,1.3.7,2.1.7.5-.5,1-1.1.8-1.8h0c0,0,.1-.1.1-.1,0,0,0-.2-.1-.3,0-.2,0-.4,0-.5,0-.4-.1-.7-.4-.9-.6-.2-1.2-.5-1.8-.7-.6-.2-1.2-.2-1.7,0-.9.3-1.7.8-2.1,1.6-.8,1.5-.4,3.1.5,4.3,1.6,1.6,2,2.3,2.2,4.4-.2,1.5-1.6,2.4-2.1,2.8h0c0,.1-.2.2-.2.2h0c-.2,0-.2-.1-.1-.2h0Z"/>
    <path class="st5" d="M21,42.7c-4.9.7-13.7,3.3-16.1,7.9-.4,2.4,3.3-1.2,4.1-1.5,2-1.6,4.1-2.4,6.5-2.9,1.7-.2,3.3-.6,4.9-1,.8-.1,1.5.2,2.1,0,.4-.2.8-.7.8-1.2,0-.8-1.2-1.1-1.9-1.2h-.4ZM24.5,45.3c-.3,0-.7.3-1,.5-1.6,1.3-3.5,2.5-5.5,3.4-3.5,1.5-6.9,2.9-10.7,3.7-.5.1-1.1.2-1.5.6-.8,1.2.4,3.1.9,4.2.6,1.5,1.8,2.6,3.4,2.6,5.3.3,10.5-2.1,14.5-5.4,1-.8,2.5-1.2,2.5-2.7-.1-1.9-1-3.7-1.7-5.5-.2-.6-.5-1.1-.8-1.3h-.3ZM29.9,70.4c-.6-4.3-1.8-8.8-2.7-13-.2-.8-.6-1.6-1.4-1.1-4,2.3-8.3,5-13.1,5.6-1.6.2-2,1.1-1.2,2.5,2,3.7,4.3,7.3,6.1,11,1,1.9,1.5,4.5,3.9,5,2.8.6,5.5-1.2,7.7-3,.4-.3.7-.7.9-1.2.5-1.5-.2-3.6,0-5.2v-.5ZM20.1,40.8c7.8-.5,6.1,5.1,8.7,9.9,1,1.3,0,2.5,0,3.9,0,1.1.4,2.2.6,3.3.5,2.4.7,5,1.1,7.5.7,2.8,1.6,5.6,1.8,8.6.4,3-1.9,5.6-4.5,6.8-2.3.8-4.8,1.3-7.2,1.5-2.3-.3-2.6-3.3-3.7-5-2.7-4.6-4.8-10-8.1-14.5-1-.9-2.2-1.5-2.8-2.7-1.3-3-4.4-6.3-2.8-9.8.6-1.3,1.7-2.3,2.8-3.3,2.5-2,5-4,7.9-5.2,1.9-.7,3.9-.7,5.9-1h.5Z"/>
  </g>
</svg>