<?xml version="1.0" encoding="UTF-8"?>
<svg id="svg3" xmlns="http://www.w3.org/2000/svg" xmlns:svg="http://www.w3.org/2000/svg" version="1.1" viewBox="0 0 90 90">
  <!-- Generator: Adobe Illustrator 29.4.0, SVG Export Plug-In . SVG Version: 2.1.0 Build 152)  -->
  <defs>
    <style>
      .st0 {
        fill: #f40290;
      }

      .st1 {
        fill: #fe6d01;
      }
    </style>
  </defs>
  <g id="g6">
    <path id="path9" class="st1" d="M15.8,9.1c2,0,4.3-.2,6.5.3,6.2,1.2,11,4.3,13.2,10.4,2.2,6.3,1.5,12.2-2.9,17.4-2.7,3.2-6.4,4.9-10.5,5.5-3.8.6-7.6.2-11.4.2-.2,0-.4,0-.6,0-3-.5-5.1-3-5.1-6V15.2c0-3.4,2.6-6.1,6-6.1,1.5,0,3,0,4.8,0ZM16.2,26v5.6c0,.3,0,.5.4.5,1.2,0,2.4,0,3.5,0,3.1-.4,5.2-2.7,5.2-6,0-3.2-2.1-5.6-5.2-6-1.2-.2-2.3,0-3.5,0-.4,0-.6.1-.6.6,0,1.8,0,3.7,0,5.5h0Z"/>
    <path id="path5" class="st1" d="M50.6,27.7c-.1.2,0,.4,0,.6v8.9c0,.8,0,1.6-.3,2.4-.7,2.5-2.9,4.1-5.5,3.9-3.3-.2-5.1-2.2-5.4-5.7,0-.3,0-.7,0-1V13.9c0-2.4.9-4.3,3.2-5.2,2.3-.9,4.5-.6,6.4,1.1,1,.9,1.8,2.1,2.6,3.2,2.5,3.5,5.2,6.8,7.6,10.4.2.4.5.7.8,1.1v-10.1c0-1.3.2-2.6.9-3.7,1.2-2.1,3.2-2.8,5.4-2.5,2.7.2,4.4,2.1,4.8,4.7,0,.6.1,1.2.1,1.8v22.9c0,2.4-.8,4.2-3,5.2-2.4,1-4.6.6-6.5-1.1-1.2-1.1-2.1-2.4-3.1-3.7-2.7-3.4-5.5-6.7-7.8-10.4,0,0,0,0,0,0h0Z"/>
    <path id="path11" class="st1" d="M16.3,57.1c2-2.6,4.1-5.1,6.1-7.6,1.1-1.5,2.5-2.5,4.4-2.7,3.3-.3,6.5,2.7,6.2,6-.1,1.5-.7,2.8-1.7,4-1.9,2.3-3.9,4.6-5.8,6.8-.3.3-.3.5,0,.8,2.1,2.3,4.2,4.7,6.2,7,1.1,1.3,1.8,2.7,1.7,4.4-.1,3.7-3.8,6.5-7.2,5.5-1.2-.3-2.1-1-2.9-2-2.2-2.7-4.5-5.4-6.6-8.1,0-.1-.2-.2-.3-.4-.2.1-.1.3-.1.4,0,1.6,0,3.2,0,4.8,0,3.3-2.4,5.6-5.6,5.5-3.2,0-5.6-2.3-5.6-5.5,0-8,0-16.1,0-24.2,0-3.2,2.4-5.5,5.6-5.5,3.2,0,5.5,2.3,5.6,5.5,0,1.8,0,3.5,0,5.1h0Z"/>
    <path id="path7" class="st1" d="M50.5,66v.6c0,3.2,0,6.4,0,9.6,0,.9-.3,1.8-.7,2.6-.9,1.9-3,3-5.2,2.8-3.2-.2-5.1-2.2-5.3-5.5,0-.2,0-.4,0-.6,0-8,0-16,0-24,0-2.1,1-3.6,2.8-4.5,2.1-1,4.1-.8,6.1.4.6.4,1.1.9,1.5,1.4,3.1,4.2,6.3,8.2,9.2,12.5.3.5.6,1,1,1.6v-10.5c0-1.5.3-3,1.3-4.2,1.5-1.8,3.5-2.1,5.7-1.7,2,.4,3.3,1.7,3.9,3.7.3.9.3,1.8.3,2.8v22.9c0,2.3-.9,4.2-3,5.1-2.3,1-4.4.7-6.4-.9-.3-.2-.6-.6-.9-.9-3.1-3.9-6.3-7.7-9.2-11.8-.4-.5-.7-1-1-1.6,0,0,0,0,0,0h0Z"/>
    <path id="path17" class="st0" d="M74.5,54.6c0-1.4,0-2.7.3-4.1.6-2.8,3-4.4,5.9-3.9,2.8.4,4.6,2.7,4.3,5.5-.2,2.3-.9,4.6-1.8,6.7-.6,1.3-1.4,2.3-2.7,2.7-2.2.7-4.5-.3-5.3-2.5-.6-1.4-.6-2.9-.6-4.4h0Z"/>
  </g>
</svg>