<?xml version="1.0" encoding="UTF-8"?>
<svg id="Layer_1" xmlns="http://www.w3.org/2000/svg" version="1.1" viewBox="0 0 210 210">
  <!-- Generator: Adobe Illustrator 29.4.0, SVG Export Plug-In . SVG Version: 2.1.0 Build 152)  -->
  <defs>
    <style>
      .st0 {
        fill: #f40290;
      }

      .st1 {
        fill: #fe6d01;
      }
    </style>
  </defs>
  <g id="g6">
    <path id="path9" class="st1" d="M71.2,51.6c3,0,6.4-.3,9.7.4,9.3,1.8,16.4,6.4,19.7,15.5,3.3,9.4,2.2,18.2-4.3,26-4,4.8-9.6,7.3-15.7,8.2-5.7.9-11.3.3-17,.3h-.9c-4.5-.7-7.6-4.5-7.6-9v-32.4c0-5.1,3.9-9.1,9-9.1h7.2ZM71.7,76.8v8.4c0,.4,0,.7.6.7h5.2c4.6-.6,7.8-4,7.8-9s-3.1-8.4-7.8-9c-1.8-.3-3.4,0-5.2,0s-.9.1-.9.9v8.2h0l.3-.3Z"/>
    <path id="path5" class="st1" d="M123.1,79.3c-.1.3,0,.6,0,.9v13.3c0,1.2,0,2.4-.4,3.6-1,3.7-4.3,6.1-8.2,5.8-4.9-.3-7.6-3.3-8.1-8.5v-35.7c0-3.6,1.3-6.4,4.8-7.8,3.4-1.3,6.7-.9,9.6,1.6,1.5,1.3,2.7,3.1,3.9,4.8,3.7,5.2,7.8,10.2,11.3,15.5.3.6.7,1,1.2,1.6v-15.1c0-1.9.3-3.9,1.3-5.5,1.8-3.1,4.8-4.2,8.1-3.7,4,.3,6.6,3.1,7.2,7,0,.9.1,1.8.1,2.7v34.2c0,3.6-1.2,6.3-4.5,7.8-3.6,1.5-6.9.9-9.7-1.6-1.8-1.6-3.1-3.6-4.6-5.5-4-5.1-8.2-10-11.6-15.5h-.3Z"/>
    <path id="path11" class="st1" d="M71.9,123.2c3-3.9,6.1-7.6,9.1-11.3,1.6-2.2,3.7-3.7,6.6-4,4.9-.4,9.7,4,9.3,9-.1,2.2-1,4.2-2.5,6-2.8,3.4-5.8,6.9-8.7,10.2-.4.4-.4.7,0,1.2,3.1,3.4,6.3,7,9.3,10.5,1.6,1.9,2.7,4,2.5,6.6-.1,5.5-5.7,9.7-10.8,8.2-1.8-.4-3.1-1.5-4.3-3-3.3-4-6.7-8.1-9.9-12.1,0-.1-.3-.3-.4-.6-.3.1-.1.4-.1.6v7.2c0,4.9-3.6,8.4-8.4,8.2-4.8,0-8.4-3.4-8.4-8.2v-36.1c0-4.8,3.6-8.2,8.4-8.2s8.2,3.4,8.4,8.2v7.6h0v.3Z"/>
    <path id="path7" class="st1" d="M123,136.5v15.2c0,1.3-.4,2.7-1,3.9-1.3,2.8-4.5,4.5-7.8,4.2-4.8-.3-7.6-3.3-7.9-8.2v-36.7c0-3.1,1.5-5.4,4.2-6.7,3.1-1.5,6.1-1.2,9.1.6.9.6,1.6,1.3,2.2,2.1,4.6,6.3,9.4,12.2,13.7,18.7.4.7.9,1.5,1.5,2.4v-15.7c0-2.2.4-4.5,1.9-6.3,2.2-2.7,5.2-3.1,8.5-2.5,3,.6,4.9,2.5,5.8,5.5.4,1.3.4,2.7.4,4.2v34.2c0,3.4-1.3,6.3-4.5,7.6-3.4,1.5-6.6,1-9.6-1.3-.4-.3-.9-.9-1.3-1.3-4.6-5.8-9.4-11.5-13.7-17.6-.6-.7-1-1.5-1.5-2.4h0v.3Z"/>
    <path id="path17" class="st0" d="M158.8,119.5c0-2.1,0-4,.4-6.1.9-4.2,4.5-6.6,8.8-5.8,4.2.6,6.9,4,6.4,8.2-.3,3.4-1.3,6.9-2.7,10-.9,1.9-2.1,3.4-4,4-3.3,1-6.7-.4-7.9-3.7-.9-2.1-.9-4.3-.9-6.6h-.1Z"/>
  </g>
</svg>